<svg width="24" height="24" viewBox="0 0 24 24" fill="none" xmlns="http://www.w3.org/2000/svg">
<path d="M19.3595 3.35938H4.63497C3.93081 3.35938 3.35938 3.91738 3.35938 4.6045V19.3926C3.35938 20.0806 3.93081 20.6394 4.63497 20.6394H19.3595C20.0641 20.6394 20.6394 20.0806 20.6394 19.3926V4.6045C20.6394 3.91738 20.0641 3.35938 19.3595 3.35938ZM8.48433 18.0843H5.92017V9.83818H8.48433V18.0843ZM7.20226 8.71065C6.38074 8.71065 5.71666 8.04489 5.71666 7.22409C5.71666 6.40449 6.38074 5.73874 7.20226 5.73874C8.02185 5.73874 8.68761 6.40449 8.68761 7.22409C8.68761 8.04489 8.02185 8.71065 7.20226 8.71065ZM18.0834 18.0843H15.5233V14.0744C15.5233 13.1178 15.5046 11.8878 14.1911 11.8878C12.8572 11.8878 12.6539 12.9296 12.6539 14.005V18.0846H10.0919V9.83818H12.5507V10.9642H12.5857C12.928 10.3162 13.7641 9.6325 15.0112 9.6325C17.6046 9.6325 18.0836 11.3398 18.0836 13.561L18.0834 18.0843Z" fill="#3CB043"/>
</svg>
