<svg width="18" height="24" viewBox="0 0 18 24" fill="none" xmlns="http://www.w3.org/2000/svg">
<path d="M16.1148 4.9998V3.72329L17.0413 3H7.01518L0.960938 8.26283H4.97607C4.96878 8.36243 4.96579 8.4525 4.96579 8.55465C4.96579 9.53175 5.30419 10.34 5.98167 10.9856C6.65915 11.6324 7.49345 11.9535 8.48135 11.9535C8.71212 11.9535 8.93841 11.9363 9.15815 11.9055C9.02187 12.2102 8.95309 12.4925 8.95309 12.7559C8.95309 13.2188 9.16399 13.7136 9.58436 14.2391C7.74528 14.3643 6.394 14.6953 5.53263 15.2311C5.03899 15.5358 4.64199 15.9204 4.34246 16.381C4.0429 16.8451 3.8935 17.3427 3.8935 17.8792C3.8935 18.3315 3.99017 18.7387 4.18502 19.1009C4.37986 19.4631 4.63398 19.7605 4.94965 19.9908C5.26457 20.2237 5.62789 20.4174 6.03804 20.5753C6.44746 20.732 6.85397 20.8433 7.25966 20.9063C7.66405 20.9692 8.06613 21 8.46462 21C9.09597 21 9.72806 20.9187 10.3652 20.7569C11.0009 20.5935 11.5971 20.3518 12.1545 20.0306C12.7104 19.7117 13.163 19.2766 13.5102 18.7313C13.8566 18.1838 14.0303 17.5686 14.0303 16.8875C14.0303 16.3711 13.9248 15.9013 13.7139 15.4746C13.5044 15.0494 13.248 14.6993 12.9426 14.4272C12.6379 14.1548 12.3333 13.9043 12.0279 13.6787C11.7231 13.4516 11.4654 13.2217 11.2559 12.9844C11.0457 12.7478 10.9402 12.5131 10.9402 12.282C10.9402 12.0513 11.0215 11.8286 11.1847 11.6133C11.3466 11.3972 11.5444 11.1892 11.7758 10.9896C12.0072 10.7904 12.2387 10.5692 12.4694 10.3271C12.7001 10.0858 12.8979 9.77272 13.0605 9.38924C13.2238 9.00584 13.3044 8.57151 13.3044 8.08814C13.3044 7.45754 13.185 6.94155 12.9506 6.52657C12.9228 6.47864 12.8935 6.44204 12.8627 6.3849L15.5302 4.19715V4.99958C15.1836 5.04316 15.2197 5.25016 15.2197 5.4981V11.5294C15.2197 11.8087 15.4482 12.0372 15.7276 12.0372H15.9145C16.1938 12.0372 16.4224 11.8087 16.4224 11.5294V5.4981C16.4224 5.25076 16.4588 5.04398 16.1148 4.9998ZM11.0823 15.4285C11.1358 15.4637 11.2559 15.5588 11.4441 15.7115C11.6339 15.8636 11.7627 15.9785 11.8315 16.0591C11.899 16.1371 11.9993 16.2543 12.1304 16.4129C12.2623 16.571 12.3516 16.7084 12.3985 16.8223C12.4453 16.9384 12.493 17.0783 12.5413 17.2416C12.5875 17.4031 12.6109 17.5686 12.6109 17.7367C12.6109 18.5358 12.3032 19.1279 11.6895 19.5113C11.0743 19.8948 10.3411 20.0867 9.48931 20.0867C9.05866 20.0867 8.63604 20.0354 8.22075 19.9369C7.80623 19.8377 7.40926 19.6868 7.03058 19.4868C6.6519 19.2872 6.34726 19.0085 6.11649 18.6526C5.88503 18.2945 5.76931 17.8832 5.76931 17.4221C5.76931 16.9384 5.90041 16.5179 6.1641 16.1609C6.4263 15.8035 6.77056 15.5332 7.19686 15.3493C7.62166 15.1643 8.0523 15.0332 8.48881 14.9556C8.92532 14.8758 9.36991 14.8358 9.82186 14.8358C10.0313 14.8358 10.1938 14.8476 10.3096 14.8685C10.3309 14.8787 10.4517 14.9655 10.6721 15.1292C10.8926 15.2915 11.0295 15.3915 11.0823 15.4285ZM10.9249 10.7139C10.5777 11.1292 10.0936 11.3368 9.47393 11.3368C8.91802 11.3368 8.42872 11.1134 8.00835 10.6659C7.58649 10.2195 7.28543 9.71304 7.1016 9.14573C6.91703 8.57813 6.82476 8.02147 6.82476 7.47473C6.82476 6.83281 6.9933 6.28636 7.33012 5.83523C7.66702 5.38291 8.15039 5.15626 8.78033 5.15626C9.33697 5.15626 9.82912 5.39242 10.2539 5.86673C10.6802 6.33946 10.9856 6.87047 11.1688 7.45898C11.3526 8.04675 11.4441 8.60881 11.4441 9.14573C11.4441 9.77604 11.2705 10.2993 10.9249 10.7139Z" fill="#68A5B3"/>
</svg>
