<svg width="24" height="24" viewBox="0 0 24 24" fill="none" xmlns="http://www.w3.org/2000/svg">
<path d="M7.43481 17.1542C6.73281 17.1542 6.07848 17.0415 5.47181 16.8162C4.87381 16.5822 4.35381 16.2529 3.91181 15.8282C3.46981 15.4035 3.12314 14.9052 2.87181 14.3332C2.62914 13.7612 2.50781 13.1329 2.50781 12.4482C2.50781 11.7635 2.62914 11.1352 2.87181 10.5632C3.12314 9.99119 3.46981 9.49286 3.91181 9.06819C4.36248 8.64352 4.88681 8.31852 5.48481 8.09319C6.08281 7.85919 6.73714 7.74219 7.44781 7.74219C8.23648 7.74219 8.94714 7.88086 9.57981 8.15819C10.2211 8.42686 10.7585 8.82552 11.1918 9.35419L9.83981 10.6022C9.52781 10.2469 9.18114 9.98252 8.79981 9.80919C8.41848 9.62719 8.00248 9.53619 7.55181 9.53619C7.12714 9.53619 6.73714 9.60552 6.38181 9.74419C6.02648 9.88286 5.71881 10.0822 5.45881 10.3422C5.19881 10.6022 4.99514 10.9099 4.84781 11.2652C4.70914 11.6205 4.63981 12.0149 4.63981 12.4482C4.63981 12.8815 4.70914 13.2759 4.84781 13.6312C4.99514 13.9865 5.19881 14.2942 5.45881 14.5542C5.71881 14.8142 6.02648 15.0135 6.38181 15.1522C6.73714 15.2909 7.12714 15.3602 7.55181 15.3602C8.00248 15.3602 8.41848 15.2735 8.79981 15.1002C9.18114 14.9182 9.52781 14.6452 9.83981 14.2812L11.1918 15.5292C10.7585 16.0579 10.2211 16.4609 9.57981 16.7382C8.94714 17.0155 8.23214 17.1542 7.43481 17.1542ZM15.3059 16.9982L11.3799 7.89819H13.6549L17.0869 15.9582H15.7479L19.2319 7.89819H21.3249L17.3859 16.9982H15.3059Z" fill="#68A5B3"/>
</svg>
